<svg version="1.1" xmlns="http://www.w3.org/2000/svg" xmlns:xlink="http://www.w3.org/1999/xlink" width="563.81199" height="168.79198" viewBox="0,0,563.81199,168.79198"><g transform="translate(46.03305,90.67282)"><g data-paper-data="{&quot;isPaintingLayer&quot;:true}" fill-rule="nonzero" stroke-linejoin="miter" stroke-miterlimit="10" stroke-dasharray="" stroke-dashoffset="0" style="mix-blend-mode: normal"><path d="M-45.03305,77.11915v-86.11189h561.81199v86.11189z" fill="#505050" stroke="#000000" stroke-width="2" stroke-linecap="butt"/><g><path d="M388.95014,-61.26313v-23.4h88.2v23.4z" fill="#dadada" stroke="none" stroke-width="0" stroke-linecap="butt"/><text transform="translate(390.59927,-67.66354) scale(0.5,0.5)" font-size="40" xml:space="preserve" fill="#464646" fill-rule="nonzero" stroke="none" stroke-width="1" stroke-linecap="butt" stroke-linejoin="miter" stroke-miterlimit="10" stroke-dasharray="" stroke-dashoffset="0" font-family="Sans Serif" font-weight="normal" text-anchor="start" style="mix-blend-mode: normal"><tspan x="0" dy="0">STFS</tspan></text><g fill="none" stroke="#ff0000" stroke-linecap="round"><path d="M452.00331,-81.77957l19.25321,15.75263" stroke-width="4"/><path d="M471.25652,-81.27948l-19.00317,15.0025" stroke-width="5"/></g></g><g stroke="#000000"><path d="M44.20166,-41.22661c0,11.60378 -9.28295,21.01051 -20.73405,21.01051c-11.4511,0 -20.73405,-9.40673 -20.73405,-21.01051c0,-11.60378 9.28295,-21.01051 20.73405,-21.01051c11.4511,0 20.73405,9.40673 20.73405,21.01051z" fill="#cccccc" stroke-width="2" stroke-linecap="butt"/><path d="M49.29047,-28.90893v-25.79807h174.68982v25.79807z" fill="#cccccc" stroke-width="2" stroke-linecap="butt"/><path d="M14.55495,-23.10491c0,0 5.68423,-12.43783 8.93745,-12.43783c3.37602,0 9.49012,12.34572 9.49012,12.34572" fill="#ffffff" stroke-width="0.5" stroke-linecap="round"/><path d="M33.81172,-43.74309c0,5.08853 -4.70258,9.2136 -10.5035,9.2136c-5.80092,0 -10.5035,-4.12507 -10.5035,-9.2136c0,-5.08853 4.70258,-9.21359 10.5035,-9.21359c5.80092,0 10.5035,4.12507 10.5035,9.2136z" fill="#ffffff" stroke-width="0.5" stroke-linecap="butt"/></g><text transform="translate(-0.00225,-70.0386) scale(0.53513,0.47435)" font-size="40" xml:space="preserve" fill="#dadada" fill-rule="nonzero" stroke="none" stroke-width="1" stroke-linecap="butt" stroke-linejoin="miter" stroke-miterlimit="10" stroke-dasharray="" stroke-dashoffset="0" font-family="Sans Serif" font-weight="normal" text-anchor="start" style="mix-blend-mode: normal"><tspan x="0" dy="0">MENU</tspan></text></g></g></svg>