<svg version="1.1" xmlns="http://www.w3.org/2000/svg" xmlns:xlink="http://www.w3.org/1999/xlink" width="200.35338" height="409.01174" viewBox="0,0,200.35338,409.01174"><g transform="translate(-319.74178,-73.05845)"><g data-paper-data="{&quot;isPaintingLayer&quot;:true}" fill-rule="nonzero" stroke="#000000" stroke-width="0.5" stroke-linejoin="miter" stroke-miterlimit="10" stroke-dasharray="" stroke-dashoffset="0" style="mix-blend-mode: normal"><path d="M478.36878,352.46727l-1.04487,8.07513l-7.89251,-2.34072l1.04483,-8.07513z" fill="#808080" stroke-linecap="butt"/><path d="M486.02183,380.03214c-0.35714,13.41128 -6.23225,24.1263 -13.12251,23.93269c-6.89025,-0.19361 -12.18642,-11.22254 -11.82928,-24.63382c0.35714,-13.41128 6.23227,-24.1263 13.12252,-23.93267c6.89025,0.19363 12.18642,11.22254 11.82928,24.63382z" fill="#ff9400" stroke-linecap="butt"/><path d="M444.36374,352.09564l-1.04485,8.07513l-7.89251,-2.34071l1.04483,-8.07515z" fill="#808080" stroke-linecap="butt"/><path d="M385.21905,275.49233l3.16627,7.39856l-7.96004,2.30109l-3.16627,-7.39855z" fill="#808080" stroke-linecap="butt"/><path d="M407.34026,244.23406l3.32474,-8.22229l8.00401,3.41543l-3.32474,8.22229z" fill="#808080" stroke-linecap="butt"/><path d="M436.05902,234.70786c0,4.42551 -7.06229,8.01311 -15.77407,8.01311c-8.71176,0 -15.77407,-3.58759 -15.77407,-8.01309c0,-4.42551 7.06229,-8.01309 15.77407,-8.01309c8.71176,0 15.77407,3.58759 15.77407,8.01311z" fill="#ff9400" stroke-linecap="butt"/><path d="M517.12656,148.44036c11.05896,41.02033 -12.46714,73.62764 -55.20521,85.1497c-42.73809,11.52206 -76.87097,-7.20039 -87.92994,-48.22072c-11.05896,-41.02032 9.61693,-66.21986 52.35501,-77.74192c42.73809,-11.52206 79.72117,-0.20739 90.78014,40.81294z" fill="#ffa000" stroke-linecap="butt"/><path d="M381.84832,165.16921c0,0 -23.12981,-54.2222 -20.53245,-58.77834c3.38383,-5.93573 52.9689,8.71587 52.9689,8.71587" fill="#ffa000" stroke-linecap="round"/><path d="M505.79268,281.03647c0,25.45854 0.98896,52.53672 -11.79504,65.27732c-7.11937,7.09518 -22.45967,7.08004 -31.52831,7.08004c-13.07174,0 -29.7449,1.77403 -38.10539,-11.93393c-7.85489,-12.8789 -8.66085,-42.10745 -8.66085,-61.30763c0,-39.6363 20.55262,-71.76787 45.90555,-71.76787c25.35292,0 44.18408,33.01578 44.18408,72.65208z" fill="#ff9400" stroke-linecap="butt"/><path d="M496.32464,290.2848c0,32.21014 -15.54292,58.32163 -34.71607,58.32163c-19.17316,0 -34.71606,-26.11149 -34.71606,-58.32163c0,-32.21014 15.54292,-58.32163 34.71606,-58.32163c19.17316,0 34.71607,26.11149 34.71607,58.32163z" fill="#ffffff" stroke-linecap="butt"/><path d="M448.99248,113.00046c0,0 36.6913,-43.61023 43.37807,-39.40652c7.06757,4.44309 16.13369,65.79489 16.13369,65.79489" fill="#ffa000" stroke-linecap="round"/><path d="M519.02456,177.91158c3.91671,14.52802 -14.98105,43.32171 -57.40803,54.7599c-42.42694,11.43818 -71.33706,-8.89288 -75.25378,-23.42091c-3.91672,-14.52802 19.36924,-19.05389 61.7962,-30.49208c42.42698,-11.43819 66.94891,-15.37496 70.86562,-0.84693z" fill="#ffffff" stroke-linecap="butt"/><path d="M455.77531,175.04533c0.99838,3.70321 -1.90141,7.70525 -6.47686,8.93878c-4.57547,1.23353 -9.09395,-0.76856 -10.09233,-4.47178c-0.99838,-3.70321 1.90141,-7.70526 6.47688,-8.93879c4.57547,-1.23353 9.09393,0.76857 10.09231,4.47179z" fill="#000000" stroke-linecap="butt"/><path d="M405.53482,192.46294c0,0 -0.38535,-37.35241 4.68725,-38.63164c2.25096,-0.56764 10.90727,-9.78744 15.97896,-3.62961c7.28758,8.8483 14.20247,31.75424 14.20247,31.75424z" fill="#ffffff" stroke-linecap="round"/><path d="M458.33993,176.56703c0,0 -4.31919,-34.98514 0.16787,-35.64491c2.89299,-0.42539 10.01673,-10.70929 17.93107,-3.12034c7.77936,7.45954 16.37588,32.79062 16.37588,32.79062z" fill="#ffffff" stroke-linecap="round"/><path d="M485.93982,190.12951c0,0 -19.73212,23.58896 -30.27945,23.99568c-10.09028,0.38909 -37.23915,-13.35489 -37.23915,-13.35489" fill="none" stroke-linecap="round"/><path d="M408.46563,270.79625c-8.69991,10.00773 -19.92003,14.29759 -25.06088,9.58163c-5.14082,-4.71595 -2.25565,-16.65181 6.44427,-26.65954c8.69991,-10.00773 19.92002,-14.29759 25.06087,-9.58164c5.14082,4.71595 2.25565,16.65182 -6.44427,26.65954z" fill="#ff9400" stroke-linecap="butt"/><path d="M355.29973,282.83164c-11.92354,-6.06612 -19.13226,-16.02087 -16.10113,-22.23455c3.03112,-6.21369 15.15425,-6.33329 27.07778,-0.26718c11.92352,6.06612 19.13227,16.02088 16.10113,22.23457c-3.03112,6.21369 -15.15425,6.33329 -27.07777,0.26718z" fill="#ff9400" stroke-linecap="butt"/><path d="M341.96126,269.24039c-6.80736,3.29519 -15.69519,-0.99417 -19.85153,-9.58054c-4.15634,-8.58638 -2.00729,-18.21827 4.80009,-21.51347c5.22951,-2.53141 8.1681,9.16636 12.76491,14.09659c1.38694,1.48756 -6.6087,-16.2001 -5.64533,-14.20992c0,0 11.95257,7.9047 15.49058,16.31546c2.53899,6.03581 -4.71458,13.51514 -7.55872,14.89188z" fill="#ffffff" stroke-linecap="butt"/><path d="M452.01681,379.66051c-0.3571,13.41126 -6.23225,24.12632 -13.12251,23.93267c-6.89025,-0.19361 -12.18642,-11.22256 -11.82928,-24.63382c0.3571,-13.41126 6.23225,-24.1263 13.12251,-23.93267c6.89025,0.19361 12.18642,11.22256 11.82928,24.63382z" fill="#ff9400" stroke-linecap="butt"/><path d="M344.78981,481.44856c0,-0.20523 0.32393,-0.37163 0.72351,-0.37163c0.39958,0 0.72349,0.16638 0.72349,0.37163c0,0.20523 -0.32393,0.37163 -0.72349,0.37163c-0.39958,0 -0.72351,-0.16638 -0.72351,-0.37163z" fill="#ffffff" stroke-linecap="butt"/><path d="M430.60224,170.98537c0.60559,2.2463 -0.96051,4.62185 -3.498,5.30595c-2.53748,0.6841 -5.08545,-0.58232 -5.69104,-2.82861c-0.60559,-2.2463 0.96051,-4.62184 3.49799,-5.30594c2.53748,-0.6841 5.08545,0.58231 5.69105,2.8286z" fill="#000000" stroke-linecap="butt"/><path d="M471.98668,161.13559c0.60559,2.2463 -0.96051,4.62184 -3.49799,5.30594c-2.53748,0.6841 -5.08546,-0.58232 -5.69105,-2.82861c-0.60559,-2.2463 0.96051,-4.62184 3.498,-5.30594c2.53748,-0.6841 5.08544,0.58231 5.69104,2.8286z" fill="#000000" stroke-linecap="butt"/></g></g></svg>