<svg version="1.1" xmlns="http://www.w3.org/2000/svg" xmlns:xlink="http://www.w3.org/1999/xlink" width="227.01644" height="408.24062" viewBox="0,0,227.01644,408.24062"><g transform="translate(-35.11858,-58.62871)"><g data-paper-data="{&quot;isPaintingLayer&quot;:true}" fill-rule="nonzero" stroke="#000000" stroke-width="0.5" stroke-linejoin="miter" stroke-miterlimit="10" stroke-dasharray="" stroke-dashoffset="0" style="mix-blend-mode: normal"><path d="" fill="#808080" stroke-linecap="butt"/><path d="" fill="#808080" stroke-linecap="butt"/><path d="" fill="#808080" stroke-linecap="butt"/><path d="" fill="#ff9400" stroke-linecap="butt"/><path d="M185.97583,337.26641l-1.04487,8.07513l-7.89251,-2.34072l1.04483,-8.07513z" fill="#808080" stroke-linecap="butt"/><path d="M193.62888,364.83128c-0.35714,13.41128 -6.23225,24.1263 -13.12251,23.93269c-6.89025,-0.19361 -12.18642,-11.22254 -11.82928,-24.63382c0.35714,-13.41128 6.23227,-24.1263 13.12252,-23.93267c6.89025,0.19363 12.18642,11.22254 11.82928,24.63382z" fill="#ff9400" stroke-linecap="butt"/><path d="" fill="#808080" stroke-linecap="butt"/><path d="" fill="#ff9400" stroke-linecap="butt"/><path d="M151.97079,336.89478l-1.04485,8.07513l-7.89251,-2.34071l1.04483,-8.07515z" fill="#808080" stroke-linecap="butt"/><path d="M233.69625,276.84771l-7.76299,1.72433l-2.8511,-8.20864l7.76297,-1.72433z" data-paper-data="{&quot;index&quot;:null}" fill="#808080" stroke-linecap="butt"/><path d="M213.90052,234.2293l-3.32474,-8.22229l8.00401,-3.41543l3.32474,8.22229z" data-paper-data="{&quot;index&quot;:null}" fill="#808080" stroke-linecap="butt"/><path d="M217.92166,225.96813c6.68432,-1.7284 14.68733,7.41756 17.87523,20.42803c3.1879,13.01046 0.35347,24.95868 -6.33087,26.68706c-6.68432,1.7284 -14.68735,-7.41756 -17.87523,-20.42803c-3.1879,-13.01046 -0.35345,-24.95864 6.33087,-26.68704z" data-paper-data="{&quot;index&quot;:null}" fill="#ff9400" stroke-linecap="butt"/><path d="M229.74596,273.5062c6.46762,-2.44844 15.37161,5.77184 19.88761,18.36054c4.51598,12.58869 2.93385,24.7787 -3.53379,27.22714c-6.46762,2.44844 -15.37161,-5.77185 -19.88759,-18.36056c-4.51598,-12.58869 -2.93385,-24.77869 3.53379,-27.22712z" data-paper-data="{&quot;index&quot;:null}" fill="#ff9400" stroke-linecap="butt"/><path d="M257.34947,320.92374c1.25299,6.63324 5.46661,11.09422 0.3649,13.95006c-6.64099,3.71752 -15.62661,-0.05938 -20.06995,-8.43585c-4.44334,-8.37651 -2.66182,-18.18066 3.97918,-21.89816c3.18801,-1.7846 13.78158,2.81859 17.30491,8.33623c3.81617,5.97623 0.52385,13.13817 2.83416,17.49353c1.02989,1.94155 -4.79125,-11.44718 -4.4132,-9.44581z" data-paper-data="{&quot;index&quot;:null}" fill="#ffffff" stroke-linecap="butt"/><path d="M222.01631,221.28769c0,4.42551 -7.06229,8.01311 -15.77403,8.01311c-8.71176,0 -15.77407,-3.58759 -15.77407,-8.01309c0,-4.42551 7.06229,-8.01309 15.77407,-8.01309c8.71176,0 15.77403,3.58759 15.77403,8.01311z" fill="#ff9400" stroke-linecap="butt"/><path d="M79.74789,219.54776l7.49262,2.93675l-3.94713,7.28544l-7.49262,-2.93675z" fill="#808080" stroke-linecap="butt"/><path d="M114.94731,229.0332l3.32474,-8.22229l8.00401,3.41543l-3.32474,8.22229z" fill="#808080" stroke-linecap="butt"/><path d="M139.09234,226.09317c0,4.42551 -7.06229,8.01311 -15.77407,8.01311c-8.71176,0 -15.77407,-3.58759 -15.77407,-8.01309c0,-4.42551 7.06229,-8.01309 15.77407,-8.01309c8.71176,0 15.77407,3.58759 15.77407,8.01311z" fill="#ff9400" stroke-linecap="butt"/><path d="M208.5249,132.42901c13.25482,40.36432 -8.47877,74.19278 -50.53336,88.00265c-42.0546,13.80987 -77.1474,-3.0448 -90.40222,-43.40912c-13.25481,-40.3643 6.03216,-66.64209 48.08675,-80.45196c42.0546,-13.80987 79.59401,-4.5059 92.84883,35.85842z" fill="#ffa000" stroke-linecap="butt"/><path d="M74.70133,156.51004c0,0 -26.01999,-52.89608 -23.67209,-57.58565c3.05884,-6.10956 53.36182,5.84694 53.36182,5.84694" fill="#ffa000" stroke-linecap="round"/><path d="M213.39973,265.83561c0,25.45854 0.98896,52.53672 -11.79504,65.27732c-7.11937,7.09518 -22.45967,7.08004 -31.52831,7.08004c-13.07174,0 -29.7449,1.77403 -38.10539,-11.93393c-7.85489,-12.8789 -8.66085,-42.10745 -8.66085,-61.30763c0,-39.6363 20.55262,-71.76787 45.90555,-71.76787c25.35292,0 44.18408,33.01578 44.18408,72.65208z" fill="#ff9400" stroke-linecap="butt"/><path d="M203.93169,275.08394c0,32.21014 -15.54292,58.32163 -34.71607,58.32163c-19.17316,0 -34.71606,-26.11149 -34.71606,-58.32163c0,-32.21014 15.54292,-58.32163 34.71606,-58.32163c19.17316,0 34.71607,26.11149 34.71607,58.32163z" fill="#ffffff" stroke-linecap="butt"/><path d="M138.9347,100.79658c0,0 34.28632,-45.52529 41.19004,-41.68827c7.29687,4.05553 19.65808,64.82919 19.65808,64.82919" fill="#ffa000" stroke-linecap="round"/><path d="M212.3651,161.83691c4.69441,14.29568 -12.62321,44.06651 -54.37168,57.77585c-41.74843,13.70933 -71.71281,-5.03323 -76.40722,-19.32892c-4.69441,-14.29568 18.31361,-20.07062 60.06207,-33.77996c41.74847,-13.70934 66.02243,-18.96268 70.71685,-4.66699z" fill="#ffffff" stroke-linecap="butt"/><path d="M149.05331,162.38542c1.19661,3.64399 -1.48316,7.79658 -5.98543,9.27503c-4.5023,1.47846 -9.12217,-0.27707 -10.31878,-3.92106c-1.19661,-3.64399 1.48316,-7.79658 5.98545,-9.27504c4.5023,-1.47846 9.12215,0.27707 10.31876,3.92107z" fill="#000000" stroke-linecap="butt"/><path d="M99.82512,182.48682c0,0 -2.39895,-37.27729 2.59729,-38.82819c2.21708,-0.68819 10.36363,-10.36135 15.75999,-4.48596c7.75411,8.44245 15.8941,30.9422 15.8941,30.9422z" fill="#ffffff" stroke-linecap="round"/><path d="M151.69626,163.76661c0,0 -6.19942,-34.70134 -1.75446,-35.60211c2.86584,-0.58077 9.42467,-11.23384 17.73672,-4.08269c8.17028,7.0292 18.12023,31.85987 18.12023,31.85987z" fill="#ffffff" stroke-linecap="round"/><path d="M179.98732,175.82109c0,0 -18.43143,24.61865 -28.94147,25.59352c-10.05462,0.93263 -37.90511,-11.32741 -37.90511,-11.32741" fill="none" stroke-linecap="round"/><path d="M99.10551,242.1753c-12.66427,-3.93183 -21.11017,-12.47353 -18.86444,-19.07848c2.24574,-6.60491 14.33265,-8.77189 26.99691,-4.84005c12.66427,3.93183 21.11017,12.47353 18.86444,19.07846c-2.24574,6.60491 -14.33265,8.77189 -26.99691,4.84005z" fill="#ff9400" stroke-linecap="butt"/><path d="M53.27621,215.97714c-7.629,-10.9894 -9.26387,-23.17094 -3.65158,-27.20824c5.61229,-4.0373 16.34647,1.5985 23.97547,12.58788c7.629,10.98938 9.26387,23.17094 3.65156,27.20824c-5.61229,4.0373 -16.34645,-1.5985 -23.97545,-12.58788z" fill="#ff9400" stroke-linecap="butt"/><path d="M57.29175,203.49627c-6.81557,3.27817 -15.69266,-1.03337 -19.82754,-9.63009c-4.13489,-8.59673 -1.96178,-18.22323 4.85381,-21.50141c5.23581,-2.51834 8.14518,9.18673 12.72965,14.12843c1.38322,1.49102 0.93519,-18.26294 1.8936,-16.27035c0,0 4.42937,9.98091 7.94637,18.40048c2.5239,6.04213 -4.74832,13.50332 -7.59589,14.87295z" fill="#ffffff" stroke-linecap="butt"/><path d="M159.62386,364.45965c-0.3571,13.41126 -6.23225,24.12632 -13.12251,23.93267c-6.89025,-0.19361 -12.18642,-11.22256 -11.82928,-24.63382c0.3571,-13.41126 6.23225,-24.1263 13.12251,-23.93267c6.89025,0.19361 12.18642,11.22256 11.82928,24.63382z" fill="#ff9400" stroke-linecap="butt"/><path d="" fill="#ffffff" stroke-linecap="butt"/><path d="M52.39686,466.2477c0,-0.20523 0.32393,-0.37163 0.72351,-0.37163c0.39958,0 0.72349,0.16638 0.72349,0.37163c0,0.20523 -0.32393,0.37163 -0.72349,0.37163c-0.39958,0 -0.72351,-0.16638 -0.72351,-0.37163z" fill="#ffffff" stroke-linecap="butt"/><path d="" data-paper-data="{&quot;index&quot;:null}" fill="#ffffff" stroke-linecap="butt"/><path d="M123.69794,159.68878c0.72584,2.21037 -0.70989,4.66691 -3.20679,5.48684c-2.4969,0.81993 -5.10945,-0.30725 -5.83529,-2.51761c-0.72584,-2.21037 0.70989,-4.66691 3.20679,-5.48684c2.4969,-0.81993 5.10945,0.30724 5.83529,2.51761z" fill="#000000" stroke-linecap="butt"/><path d="M164.49104,147.62175c0.72584,2.21037 -0.70989,4.66691 -3.20679,5.48684c-2.4969,0.81993 -5.10945,-0.30725 -5.83529,-2.51761c-0.72584,-2.21037 0.70989,-4.66691 3.20679,-5.48684c2.4969,-0.81993 5.10945,0.30724 5.83529,2.51761z" fill="#000000" stroke-linecap="butt"/></g></g></svg>