<svg version="1.1" xmlns="http://www.w3.org/2000/svg" xmlns:xlink="http://www.w3.org/1999/xlink" width="71.23431" height="41.32829" viewBox="0,0,71.23431,41.32829"><g transform="translate(-199.00188,-160.67008)"><g data-paper-data="{&quot;isPaintingLayer&quot;:true}" fill-rule="nonzero" stroke="none" stroke-linecap="butt" stroke-linejoin="miter" stroke-miterlimit="10" stroke-dasharray="" stroke-dashoffset="0" style="mix-blend-mode: normal"><path d="M210.072,199.32992v-38.65984h60.07946v38.65984z" fill="#cc7c00" stroke-width="0"/><path d="M214.38645,194.27448l0.23348,-29.94986l51.90751,4.66968l-9.10588,27.14805z" fill="#ffffff" stroke-width="0"/><path d="M222.11284,171.65166c0.21445,0.45167 -0.23722,0.66613 -0.23722,0.66613l-0.3521,0.14768c-0.62431,0.11148 -2.04032,0.51061 -2.56221,-0.00808c-1.75039,-1.73968 0.77732,-4.53998 2.55713,-4.55884c0,0 0.4999,0.01018 0.48972,0.51008c-0.01018,0.4999 -0.51008,0.48972 -0.51008,0.48972c-0.97267,-0.06859 -2.80256,1.81748 -1.87933,2.80554c0.17895,0.19152 1.46598,-0.1757 1.72866,-0.22279l0.0993,-0.06665c0,0 0.45167,-0.21445 0.66613,0.23722z" fill="#000000" stroke-width="0.5"/><path d="M250.0293,177.3796c-0.0626,-0.0652 -0.1021,-0.12994 -0.1248,-0.19224l-0.80489,-0.04309l-0.00193,0.09423c-0.31494,6.03647 -6.00761,3.12376 -7.96456,-0.36365c0,0 -0.24468,-0.43604 0.19136,-0.68072c0.43604,-0.24468 0.68072,0.19136 0.68072,0.19136c0.3213,0.57257 0.77675,1.1619 1.29588,1.68502c0.20573,-0.55878 0.57647,-1.07539 1.01227,-1.57692c-1.49713,-0.29875 -2.98565,-0.69979 -4.39852,-1.2385c-0.16438,0.69674 -0.44795,1.32389 -0.90621,1.78832c0,0 -0.36068,0.34628 -0.70696,-0.0144c-0.34628,-0.36068 0.0144,-0.70696 0.0144,-0.70696c0.36232,-0.32065 0.57525,-0.83897 0.69076,-1.4373c-1.11316,-0.48515 -2.16736,-1.06528 -3.12718,-1.7591c0,0 -0.26267,-0.18987 -0.21218,-0.47536c-1.04446,0.72546 -2.0712,1.41159 -3.13551,2.00219c0.01871,0.3131 0.04831,0.60343 0.09556,0.85425c0.72732,0.12919 1.51151,0.24921 2.22545,0.06542c0.04233,-0.14713 0.15996,-0.35793 0.48635,-0.35128c0.4999,0.01018 0.48972,0.51008 0.48972,0.51008l-0.32824,0.68117c-0.31657,0.11455 -1.00548,0.20817 -1.77893,0.21759c0.04491,0.07108 0.07383,0.16501 0.0713,0.28914c-0.01018,0.4999 -0.51008,0.48972 -0.51008,0.48972l-0.00563,-0.00011c-0.79628,-0.06484 -1.24217,-0.4271 -1.48617,-0.96414c-0.19849,-0.04801 -0.38519,-0.1065 -0.55397,-0.17682c-1.19977,1.00444 -2.48318,0.02991 -3.5067,-1.46123c-1.33757,1.58654 -3.19212,2.60359 -5.28708,2.54556l-0.00349,0.17121l-0.89371,-0.0182c-0.27609,-0.00562 -0.49534,-0.23399 -0.48972,-0.51008c0.00317,-0.15571 0.0772,-0.29334 0.19067,-0.38275l0.67867,-0.54253c0,0 0.39055,-0.31221 0.70275,0.07834c0.06921,0.08658 0.10389,0.16932 0.11594,0.24565c1.1586,-0.50851 2.68155,-0.41486 3.63966,-1.25788c0.31583,-0.27789 0.59957,-0.68826 0.85267,-1.12013c-0.04691,-0.08225 -0.09301,-0.16519 -0.13825,-0.24863c-0.00121,0.00188 -0.00243,0.00375 -0.00365,0.00563c-0.4703,0.72005 -2.851,1.03727 -3.66639,1.287l-0.26831,0.01954c0,0 -0.4999,-0.01018 -0.48972,-0.51008c0.01018,-0.4999 0.51008,-0.48972 0.51008,-0.48972l-0.04489,0.02409c0.75937,-0.23256 2.51071,-0.36184 3.08192,-0.81077c0.31331,-0.24624 -0.36621,-0.711 -0.59792,-1.03521c-0.72418,-1.01327 -2.0939,-1.93405 -3.26004,-2.23875c0,0 -0.4825,-0.13112 -0.35138,-0.61362c0.13112,-0.4825 0.61362,-0.35138 0.61362,-0.35138c0.58153,0.1631 2.19363,1.01401 3.35934,2.04339c-0.09459,-0.3217 -0.16204,-0.61169 -0.19834,-0.85283c0,0 -0.07214,-0.49477 0.42263,-0.56691c0.49477,-0.07214 0.56691,0.42263 0.56691,0.42263c0.13834,0.9854 0.49214,2.00683 1.00501,2.91143c0.04275,-0.0825 0.08423,-0.16217 0.12445,-0.238l-0.04934,-0.22227c0,0 0.01018,-0.4999 0.51008,-0.48972c0.4999,0.01018 0.48972,0.51008 0.48972,0.51008l-0.06754,0.67144c-0.12495,0.23434 -0.25919,0.4622 -0.4022,0.6826c0.10216,0.13241 0.20811,0.26016 0.3176,0.38255c0.49382,0.55205 1.302,1.93647 1.80487,1.4118c-0.1091,-0.17129 -0.15855,-0.37154 -0.13093,-0.60458c0.05457,-0.46044 0.7614,-0.52786 1.14407,-0.79118c0.02464,-1.18774 0.1602,-2.4863 -0.14144,-3.44299c0,0 -0.14842,-0.47746 0.32904,-0.62589c0.47746,-0.14842 0.62589,0.32904 0.62589,0.32904c0.19323,0.62954 0.15766,1.87654 0.16969,3.05591c0.90911,-0.63354 1.81708,-1.26876 2.7263,-1.90212c0,0 0.41027,-0.28579 0.69606,0.12448c0.09768,0.14023 0.11405,0.26591 0.09327,0.37061c0.23122,-0.07472 0.44828,0.08218 0.44828,0.08218c0.81915,0.59214 1.71146,1.09671 2.65226,1.52693c0.03162,-0.86077 -0.05709,-1.74809 -0.14587,-2.38971c-0.02841,-0.03106 -0.32748,-0.37442 0.01652,-0.70468c0.36068,-0.34628 0.70696,0.0144 0.70696,0.0144l0.24363,0.3888c0.12785,0.89993 0.22809,2.02568 0.13342,3.09656c1.60837,0.63346 3.32744,1.07472 5.04493,1.38388c0.02998,-0.03096 0.06,-0.06191 0.09001,-0.09288c-0.89742,-0.69394 -1.21748,-1.96469 -1.87172,-3.34263c0,0 -0.21445,-0.45167 0.23722,-0.66613c0.45167,-0.21445 0.66613,0.23722 0.66613,0.23722c0.50535,1.06435 0.76914,2.45438 1.63109,3.07345c0.79578,-0.87316 1.45212,-1.79183 1.4413,-2.89899c0,0 0.01018,-0.4999 0.51008,-0.48972c0.4999,0.01018 0.48972,0.51008 0.48972,0.51008c-0.05303,1.31797 -0.76657,2.28618 -1.5953,3.18992c0.01863,0.00183 0.03744,0.00343 0.05643,0.00478l0.51955,-0.55157c0,0 0.36068,-0.34628 0.70696,0.0144c0.34628,0.36068 -0.0144,0.70696 -0.0144,0.70696l-0.70214,0.63045c0.38026,0.04672 0.75805,0.08808 1.13213,0.12475c0.05754,-0.02107 0.12601,-0.03296 0.20749,-0.0313c0.11826,0.00241 0.20797,0.03222 0.27602,0.07634c0.05691,0.00503 0.11371,0.00995 0.17041,0.01477l0.90837,0.04851c0,0 0.24225,0.01295 0.38025,0.18956c0.68105,-0.61124 1.59206,-1.31118 1.38974,-2.23784c0,0 -0.08806,-0.49219 0.40413,-0.58024c0.49219,-0.08806 0.58024,0.40413 0.58024,0.40413c0.23257,1.50772 -0.87019,2.34741 -1.88076,3.31916l-0.11399,0.10944c0,0 -0.36068,0.34628 -0.70696,-0.0144zM248.09834,177.2022l0.00299,-0.14753c-0.92113,-0.09482 -1.86138,-0.21828 -2.80404,-0.37919c-0.44897,0.52773 -0.83461,1.08721 -1.05469,1.73191l0.02432,0.06587c0,0 -0.00395,0.19389 -0.12768,0.33771c1.76076,1.34916 3.78845,1.64599 3.9591,-1.60878z" fill="#000000" stroke-width="0.5"/><path d="M256.88859,177.56631c0.14842,0.47746 -0.32904,0.62589 -0.32904,0.62589l-0.14373,-0.00793c-0.80225,0.70315 -3.33382,1.24538 -3.51975,-0.4962c-0.04218,-0.3951 0.366,-1.60757 0.37726,-2.16067c0,0 0.01018,-0.4999 0.51008,-0.48972c0.4999,0.01018 0.48972,0.51008 0.48972,0.51008c-0.01685,0.82756 -0.48461,3.94993 1.45848,1.90722l0.5311,-0.21771c0,0 0.47746,-0.14842 0.62589,0.32904z" fill="#000000" stroke-width="0.5"/><path d="M210.46425,199.1457l-11.46237,-22.046l57.90407,1.64602l13.33024,20.39998z" fill="#ff9b00" stroke-width="0"/><text transform="translate(209.72899,194.92682) rotate(1.66416) scale(0.46364,0.46364)" font-size="40" xml:space="preserve" fill="#00ffff" fill-rule="nonzero" stroke="none" stroke-width="1" stroke-linecap="butt" stroke-linejoin="miter" stroke-miterlimit="10" stroke-dasharray="" stroke-dashoffset="0" font-family="Sans Serif" font-weight="normal" text-anchor="start" style="mix-blend-mode: normal"><tspan x="0" dy="0">SAVE</tspan></text></g></g></svg>