<svg version="1.1" xmlns="http://www.w3.org/2000/svg" xmlns:xlink="http://www.w3.org/1999/xlink" width="115.08314" height="214.54433" viewBox="0,0,115.08314,214.54433"><g transform="translate(-291.76208,-84.38471)"><g data-paper-data="{&quot;isPaintingLayer&quot;:true}" fill-rule="nonzero" stroke="#000000" stroke-width="0.5" stroke-linejoin="miter" stroke-miterlimit="10" stroke-dasharray="" stroke-dashoffset="0" style="mix-blend-mode: normal"><path d="M362.61453,282.22246l1.21794,4.18522l-4.36099,0.63852l-1.21794,-4.18521z" fill="#808080" stroke-linecap="butt"/><path d="M344.21321,283.29466l-0.56029,4.33014l-4.23221,-1.25516l0.56028,-4.33014z" fill="#808080" stroke-linecap="butt"/><path d="M363.25335,256.4174l-0.56029,4.33015l-4.23221,-1.25517l0.56028,-4.33014z" fill="#808080" stroke-linecap="butt"/><path d="M367.35718,271.19855c-0.19151,7.19155 -3.34193,12.93728 -7.0367,12.83346c-3.69477,-0.10383 -6.53474,-6.01788 -6.34323,-13.20944c0.19151,-7.19155 3.34194,-12.93728 7.03671,-12.83345c3.69477,0.10383 6.53473,6.01788 6.34323,13.20943z" fill="#ff9400" stroke-linecap="butt"/><path d="M363.64133,229.31595l-0.56029,4.33014l-4.23221,-1.25517l0.56027,-4.33014z" fill="#808080" stroke-linecap="butt"/><path d="M367.74514,244.0971c-0.19151,7.19155 -3.34193,12.93728 -7.0367,12.83346c-3.69477,-0.10382 -6.53474,-6.01788 -6.34323,-13.20943c0.19151,-7.19155 3.34194,-12.93728 7.03671,-12.83345c3.69477,0.10383 6.53474,6.01788 6.34323,13.20943z" fill="#ff9400" stroke-linecap="butt"/><path d="M345.01879,256.61667l-0.56028,4.33014l-4.23221,-1.25516l0.56028,-4.33014z" fill="#808080" stroke-linecap="butt"/><path d="M349.12262,271.39782c-0.19151,7.19155 -3.34193,12.93728 -7.0367,12.83346c-3.69477,-0.10383 -6.53474,-6.01788 -6.34323,-13.20943c0.19151,-7.19155 3.34194,-12.93728 7.03671,-12.83345c3.69477,0.10383 6.53472,6.01788 6.34323,13.20943z" fill="#ff9400" stroke-linecap="butt"/><path d="M345.40676,229.11667l-0.56028,4.33014l-4.23221,-1.25516l0.56027,-4.33015z" fill="#808080" stroke-linecap="butt"/><path d="M389.23052,196.91754l-4.16276,0.92464l-1.52885,-4.40173l4.16275,-0.92464z" data-paper-data="{&quot;index&quot;:null}" fill="#808080" stroke-linecap="butt"/><path d="M378.61543,174.06421l-1.78283,-4.40905l4.292,-1.83146l1.78283,4.40905z" data-paper-data="{&quot;index&quot;:null}" fill="#808080" stroke-linecap="butt"/><path d="M380.77169,169.63431c3.58434,-0.92682 7.87581,3.97753 9.58526,10.95415c1.70945,6.97662 0.18954,13.38363 -3.39481,14.31044c-3.58434,0.92682 -7.87582,-3.97753 -9.58526,-10.95415c-1.70945,-6.97662 -0.18953,-13.38361 3.39481,-14.31043z" data-paper-data="{&quot;index&quot;:null}" fill="#ff9400" stroke-linecap="butt"/><path d="M387.11225,195.12572c3.46814,-1.31293 8.24274,3.09504 10.66436,9.8455c2.42161,6.75045 1.57322,13.28712 -1.89493,14.60005c-3.46814,1.31293 -8.24274,-3.09505 -10.66435,-9.84551c-2.42161,-6.75045 -1.57322,-13.28711 1.89493,-14.60004z" data-paper-data="{&quot;index&quot;:null}" fill="#ff9400" stroke-linecap="butt"/><path d="M402.08902,220.3776c0.67189,3.55695 2.93137,5.94907 0.19567,7.48046c-3.56111,1.99345 -8.37948,-0.03184 -10.76214,-4.52357c-2.38266,-4.49175 -1.42735,-9.74904 2.13376,-11.74248c3.56111,-1.99345 10.5153,1.66356 12.89796,6.1553c0.55226,1.04112 -4.66797,1.55709 -4.46525,2.63029z" data-paper-data="{&quot;index&quot;:null}" fill="#ffffff" stroke-linecap="butt"/><path d="M382.96737,167.12451c0,2.3731 -3.78702,4.29688 -8.45853,4.29688c-4.67152,0 -8.45855,-1.92378 -8.45855,-4.29687c0,-2.3731 3.78702,-4.29687 8.45855,-4.29687c4.67152,0 8.45853,1.92378 8.45853,4.29688z" fill="#ff9400" stroke-linecap="butt"/><path d="M309.44626,185.33301l2.88083,3.21299l-3.64699,2.53801l-2.88083,-3.21299z" fill="#808080" stroke-linecap="butt"/><path d="M325.55361,171.2779l1.78283,-4.40905l4.292,1.83146l-1.78283,4.40905z" fill="#808080" stroke-linecap="butt"/><path d="M340.95351,166.16965c0,2.3731 -3.78702,4.29688 -8.45855,4.29688c-4.67152,0 -8.45855,-1.92378 -8.45855,-4.29687c0,-2.3731 3.78702,-4.29687 8.45855,-4.29687c4.67152,0 8.45855,1.92378 8.45855,4.29688z" fill="#ff9400" stroke-linecap="butt"/><path d="M393.93101,129.87538c0,22.78175 -16.73196,36.38021 -40.4677,36.38021c-23.73575,0 -38.79458,-14.45784 -38.79458,-37.23959c0,-22.78174 14.22228,-32.9427 37.95802,-32.9427c23.73575,0 41.30426,11.02033 41.30426,33.80208z" fill="#ffa000" stroke-linecap="butt"/><path d="M319.41364,118.18537c0,0 -0.55807,-31.60561 1.65126,-33.34563c2.87831,-2.26689 24.56092,15.01229 24.56092,15.01229" fill="#ffa000" stroke-linecap="round"/><path d="M378.34689,191.01251c0,13.65167 0.53031,28.17184 -6.32487,35.00375c-3.81763,3.80466 -12.04358,3.79654 -16.90647,3.79654c-7.00948,0 -15.95015,0.95129 -20.43331,-6.39935c-4.21204,-6.90607 -4.64422,-22.57934 -4.64422,-32.87508c0,-21.25423 11.02096,-38.48419 24.616,-38.48419c13.59503,0 23.69289,17.7041 23.69289,38.95833z" fill="#ff9400" stroke-linecap="butt"/><path d="M373.26983,195.97175c0,17.27209 -8.3346,31.27389 -18.61585,31.27389c-10.28125,0 -18.61584,-14.0018 -18.61584,-31.27389c0,-17.27209 8.3346,-31.27389 18.61584,-31.27389c10.28125,0 18.61585,14.0018 18.61585,31.27389z" fill="#ffffff" stroke-linecap="butt"/><path d="M363.47242,102.71662c0,0 24.20601,-18.65589 27.22902,-15.68948c3.19516,3.13534 0.93514,36.31448 0.93514,36.31448" fill="#ffa000" stroke-linecap="round"/><path d="M390.80002,145.39891c0,8.06853 -13.80334,20.33854 -37.36631,20.33854c-23.56295,0 -35.69318,-14.56168 -35.69318,-22.63021c0,-8.06853 12.68794,-7.16146 36.2509,-7.16146c23.56297,0 36.8086,1.38459 36.8086,9.45313z" fill="#ffffff" stroke-linecap="butt"/><path d="M358.45306,135.08641c0,2.05668 -2.05997,3.72396 -4.60107,3.72396c-2.54111,0 -4.60108,-1.66728 -4.60108,-3.72396c0,-2.05668 2.05997,-3.72396 4.60108,-3.72396c2.54111,0 4.60107,1.66728 4.60107,3.72396z" fill="#000000" stroke-linecap="butt"/><path d="M330.01005,137.0916c0,0 5.01424,-19.39285 7.81912,-19.34712c1.24466,0.0203 7.01335,-3.54494 8.77967,0.35117c2.53805,5.59839 2.92093,18.42305 2.92093,18.42305z" fill="#ffffff" stroke-linecap="round"/><path d="M359.56848,136.23224c0,0 2.64708,-18.7163 5.06233,-18.43158c1.55721,0.18357 6.68095,-4.14653 9.71928,0.88733c2.98651,4.94801 3.90154,19.263 3.90154,19.263z" fill="#ffffff" stroke-linecap="round"/><path d="M367.94251,150.60455l-33.8193,-1.46667" fill="none" stroke-linecap="round"/><path d="M325.51848,185.30159c-4.64788,5.38144 -10.65703,7.70113 -13.42184,5.18117c-2.76479,-2.51996 -1.23826,-8.92529 3.40962,-14.30672c4.64788,-5.38144 10.65703,-7.70113 13.42183,-5.18117c2.76479,2.51996 1.23826,8.92529 -3.40962,14.30672z" fill="#ff9400" stroke-linecap="butt"/><path d="M298.3775,178.29934c-2.31264,-6.79066 -1.35917,-13.31202 2.12964,-14.56586c3.48881,-1.25385 8.19181,3.23463 10.50445,10.02528c2.31264,6.79065 1.35917,13.31202 -2.12965,14.56586c-3.48881,1.25385 -8.1918,-3.23463 -10.50444,-10.02528z" fill="#ff9400" stroke-linecap="butt"/><path d="M309.90787,162.73215c0,5.11535 -4.40304,11.74479 -8.45855,11.74479c-4.0555,0 -7.34313,-4.14681 -7.34313,-9.26216c0,-5.11535 3.28762,-9.26216 7.34313,-9.26216c3.11549,0 2.24569,3.21114 3.31249,6.66473c0.32187,1.04202 5.14605,-1.07088 5.14605,0.11478z" fill="#ffffff" stroke-linecap="butt"/><path d="M349.51058,243.89782c-0.19149,7.19154 -3.34193,12.93729 -7.0367,12.83345c-3.69477,-0.10382 -6.53474,-6.01789 -6.34323,-13.20943c0.19149,-7.19154 3.34193,-12.93728 7.0367,-12.83345c3.69477,0.10382 6.53474,6.01789 6.34323,13.20943z" fill="#ff9400" stroke-linecap="butt"/><path d="M346.82355,289.95522c0,1.96267 -4.18052,2.02596 -8.57305,2.02596c-2.25477,0 -10.7419,-0.30688 -10.7419,-1.26207c0,-1.96267 6.4733,-5.59078 10.86584,-5.59078c4.39253,0 8.44912,2.86422 8.44912,4.82689z" fill="#ffffff" stroke-linecap="butt"/><path d="M292.01209,298.47977c0,-0.11005 0.1737,-0.19928 0.38797,-0.19928c0.21427,0 0.38796,0.08922 0.38796,0.19928c0,0.11005 -0.1737,0.19928 -0.38796,0.19928c-0.21427,0 -0.38797,-0.08922 -0.38797,-0.19928z" fill="#ffffff" stroke-linecap="butt"/><path d="M363.71908,285.47006c4.39253,0 10.86584,3.62811 10.86584,5.59078c0,0.9552 -8.48712,1.26207 -10.7419,1.26207c-4.39253,0 -8.57305,-0.06328 -8.57305,-2.02597c0,-1.96267 4.05658,-4.82689 8.44911,-4.82689z" data-paper-data="{&quot;index&quot;:null}" fill="#ffffff" stroke-linecap="butt"/><path d="M346.1614,132.0941c0,1.24754 -1.14243,2.25887 -2.55169,2.25887c-1.40926,0 -2.55169,-1.01134 -2.55169,-2.25887c0,-1.24754 1.14243,-2.25887 2.55169,-2.25887c1.40926,0 2.55169,1.01133 2.55169,2.25887z" fill="#000000" stroke-linecap="butt"/><path d="M367.91351,132.59607c0,1.24754 -1.14243,2.25887 -2.55169,2.25887c-1.40926,0 -2.55169,-1.01134 -2.55169,-2.25887c0,-1.24754 1.14243,-2.25887 2.55169,-2.25887c1.40926,0 2.55169,1.01133 2.55169,2.25887z" fill="#000000" stroke-linecap="butt"/></g></g></svg>