<svg version="1.1" xmlns="http://www.w3.org/2000/svg" xmlns:xlink="http://www.w3.org/1999/xlink" width="285.87231" height="160.44481" viewBox="0,0,285.87231,160.44481"><g transform="translate(32.96902,-223.84439)"><g data-paper-data="{&quot;isPaintingLayer&quot;:true}" fill-rule="nonzero" stroke="#000000" stroke-width="0.5" stroke-linejoin="miter" stroke-miterlimit="10" stroke-dasharray="" stroke-dashoffset="0" style="mix-blend-mode: normal"><path d="" fill="#808080" stroke-linecap="butt"/><path d="" fill="#808080" stroke-linecap="butt"/><path d="" fill="#808080" stroke-linecap="butt"/><path d="" fill="#ff9400" stroke-linecap="butt"/><path d="" fill="#808080" stroke-linecap="butt"/><path d="" fill="#ff9400" stroke-linecap="butt"/><path d="" fill="#808080" stroke-linecap="butt"/><path d="" fill="#ff9400" stroke-linecap="butt"/><path d="" fill="#808080" stroke-linecap="butt"/><path d="" data-paper-data="{&quot;index&quot;:null}" fill="#808080" stroke-linecap="butt"/><path d="" data-paper-data="{&quot;index&quot;:null}" fill="#808080" stroke-linecap="butt"/><path d="" data-paper-data="{&quot;index&quot;:null}" fill="#ff9400" stroke-linecap="butt"/><path d="" data-paper-data="{&quot;index&quot;:null}" fill="#ff9400" stroke-linecap="butt"/><path d="" data-paper-data="{&quot;index&quot;:null}" fill="#ffffff" stroke-linecap="butt"/><path d="" fill="#ff9400" stroke-linecap="butt"/><path d="" fill="#808080" stroke-linecap="butt"/><path d="" fill="#808080" stroke-linecap="butt"/><path d="" fill="#ff9400" stroke-linecap="butt"/><path d="" fill="#ffa000" stroke-linecap="butt"/><path d="" fill="#ffa000" stroke-linecap="round"/><path d="" fill="#ff9400" stroke-linecap="butt"/><path d="" fill="#ffffff" stroke-linecap="butt"/><path d="" fill="#ffa000" stroke-linecap="round"/><path d="" fill="#ffffff" stroke-linecap="butt"/><path d="" fill="#000000" stroke-linecap="butt"/><path d="" fill="#ffffff" stroke-linecap="round"/><path d="" fill="#ffffff" stroke-linecap="round"/><path d="" fill="none" stroke-linecap="round"/><path d="" fill="#ff9400" stroke-linecap="butt"/><path d="" fill="#ff9400" stroke-linecap="butt"/><path d="" fill="#ffffff" stroke-linecap="butt"/><path d="" fill="#ff9400" stroke-linecap="butt"/><path d="" fill="#ffffff" stroke-linecap="butt"/><path d="" fill="#ffffff" stroke-linecap="butt"/><path d="" data-paper-data="{&quot;index&quot;:null}" fill="#ffffff" stroke-linecap="butt"/><path d="" fill="#000000" stroke-linecap="butt"/><path d="" fill="#000000" stroke-linecap="butt"/><path d="" fill="#ffffff" stroke-linecap="butt"/><path d="M239.89775,358.842l6.39045,1.07684l-2.10189,6.20576l-6.39045,-1.07683z" fill="#808080" stroke-linecap="butt"/><path d="M200.37594,356.13254l6.39046,1.07683l-2.10189,6.20575l-6.39046,-1.07683z" fill="#808080" stroke-linecap="butt"/><path d="M222.53165,350.88514c10.65529,0.69234 18.99822,5.69112 18.63447,11.16514c-0.36378,5.47402 -9.29646,9.35035 -19.95175,8.658c-10.65529,-0.69234 -18.99823,-5.69113 -18.63445,-11.16514c0.36378,-5.47402 9.29645,-9.35032 19.95175,-8.65801z" fill="#ff9400" stroke-linecap="butt"/><path d="M161.36111,355.90476l5.67457,3.12998l-4.03624,5.1612l-5.67458,-3.12997z" fill="#808080" stroke-linecap="butt"/><path d="M88.01788,323.0612l-7.05855,0.06266l-0.19351,-6.92338l7.05856,-0.06266z" data-paper-data="{&quot;index&quot;:null}" fill="#808080" stroke-linecap="butt"/><path d="M84.0099,308.7858c3.27699,1.29135 3.87277,7.56765 1.33072,14.01849c-2.54206,6.45085 -7.25934,10.63348 -10.53632,9.34213c-3.27699,-1.29135 -3.87276,-7.56764 -1.33069,-14.01851c2.54206,-6.45085 7.25933,-10.63346 10.53632,-9.34211z" fill="#ff9400" stroke-linecap="butt"/><path d="M42.52996,363.45804l6.00442,-2.22973l1.52016,6.41718l-6.00442,2.22972z" fill="#808080" stroke-linecap="butt"/><path d="M70.68886,351.84619l-5.11827,-4.86112l4.86458,-4.93017l5.11826,4.86112z" fill="#808080" stroke-linecap="butt"/><path d="M72.01496,327.80091c3.27699,1.29135 3.87277,7.56765 1.3307,14.01852c-2.54206,6.45085 -7.25934,10.63348 -10.53631,9.34213c-3.27699,-1.29135 -3.87275,-7.56764 -1.33069,-14.01851c2.54206,-6.45085 7.25933,-10.63349 10.53632,-9.34214z" fill="#ff9400" stroke-linecap="butt"/><path d="M64.56265,252.03649c25.12959,22.62435 23.51311,54.58518 -0.05864,80.76707c-23.57176,26.18191 -54.47439,28.43471 -79.60398,5.81036c-25.12958,-22.62434 -22.21368,-48.40311 1.35807,-74.585c23.57176,-26.18191 53.17496,-34.61679 78.30454,-11.99243z" fill="#ffa000" stroke-linecap="butt"/><path d="M127.30957,328.21744c18.85144,3.49697 39.19077,6.87168 44.89456,13.07784c3.17641,3.45619 -1.31104,8.80128 -3.95723,11.96233c-3.81429,4.55642 -7.36582,10.61187 -19.9558,11.64317c-11.82854,0.96895 -33.70677,-2.76494 -47.92405,-5.40226c-29.34974,-5.44441 -47.14525,-17.02202 -39.74736,-25.85929c7.39788,-8.83727 37.34015,-10.86622 66.68989,-5.4218z" fill="#ff9400" stroke-linecap="butt"/><path d="M122.43323,362.66649c-23.88885,-2.18806 -47.07984,-7.94134 -51.79852,-12.8503c-4.71867,-4.90895 10.82183,-7.11468 34.71068,-4.92662c23.88885,2.18806 47.07984,7.94134 51.79851,12.8503c4.71867,4.90896 -10.82183,7.11469 -34.71068,4.92663z" fill="#ffffff" stroke-linecap="butt"/><path d="M4.37504,255.12592c0,0 29.29522,-30.63924 35.56947,-31.02788c6.63154,-0.41076 4.36346,33.92772 4.36346,33.92772" fill="#ffa000" stroke-linecap="round"/><path d="M54.51495,341.87114c-19.25619,14.90142 -41.69538,14.2225 -51.15462,7.70616c-9.45923,-6.51634 1.97306,-13.80773 21.22926,-28.70916c19.25621,-14.90143 30.25443,-10.03501 39.71367,-3.51866c0,0 9.46789,9.62022 -9.78832,24.52165z" fill="#ffffff" stroke-linecap="butt"/><path d="M0.42683,343.6086c0,0 -16.41184,-24.78986 -13.57589,-27.83839c1.25846,-1.35277 3.05462,-11.25658 9.10638,-9.33574c8.69586,2.76009 25.14025,18.18681 25.14025,18.18681z" fill="#ffffff" stroke-linecap="round"/><path d="M24.07913,321.04062c0,0 -3.50724,-4.8598 -7.32397,-10.43986c-2.61844,-3.82817 -6.37679,-8.72929 -5.27303,-9.69827c1.74894,-1.53539 2.06093,-11.48736 10.63091,-9.83973c8.42382,1.61953 28.09357,19.70212 28.09357,19.70212z" fill="#ffffff" stroke-linecap="round"/><path d="M50.45627,320.86464c0,0 -1.37494,9.44506 -4.48826,13.35109c-2.9377,3.68568 -13.69541,9.46244 -13.69541,9.46244" fill="none" stroke-linecap="round"/><path d="M61.42908,364.39835c-8.72527,5.93779 -18.23054,6.96386 -21.23065,2.29176c-3.00008,-4.67209 1.64109,-13.27309 10.36636,-19.21087c8.72527,-5.93779 18.23054,-6.96386 21.23063,-2.29176c3.00007,4.67209 -1.64108,13.27309 -10.36636,19.21087z" fill="#ff9400" stroke-linecap="butt"/><path d="M29.03883,375.87737c-10.6356,-0.50171 -19.12203,-5.36701 -18.95497,-10.86696c0.16704,-5.49996 8.92433,-9.55183 19.55991,-9.05012c10.63559,0.50171 19.12204,5.36702 18.95497,10.86698c-0.16705,5.49996 -8.92432,9.55181 -19.55991,9.05011z" fill="#ff9400" stroke-linecap="butt"/><path d="M-2.50639,351.82383c7.57106,-0.56898 17.87281,5.21042 18.3239,11.21285c0.45109,6.00241 -5.32078,11.32957 -12.89183,11.89854c-7.57105,0.56898 -14.07428,-3.83568 -14.52537,-9.83811c-0.34653,-4.61113 4.50292,-3.68094 9.4958,-5.64401c1.50646,-0.59229 -2.15736,-7.49738 -0.40251,-7.62926z" fill="#ffffff" stroke-linecap="butt"/><path d="M181.76696,348.7484c10.65528,0.69231 18.99824,5.69113 18.63446,11.16514c-0.36375,5.47402 -9.29647,9.35034 -19.95175,8.658c-10.65528,-0.69231 -18.99823,-5.69111 -18.63446,-11.16513c0.36375,-5.47402 9.29647,-9.35035 19.95175,-8.65801z" fill="#ff9400" stroke-linecap="butt"/><path d="M249.92458,355.34862c2.91094,0.11143 2.76746,6.31538 2.51807,12.83017c-0.12802,3.34417 -1.06504,15.91446 -2.48173,15.86023c-2.91094,-0.11143 -7.92445,-9.91832 -7.67506,-16.43312c0.24939,-6.51479 4.72778,-12.36872 7.63872,-12.25729z" fill="#ffffff" stroke-linecap="butt"/><path d="M238.76552,339.96959l6.15012,1.99793l-0.97199,6.11217l-6.15014,-1.99793z" fill="#808080" stroke-linecap="butt"/><path d="M197.99707,339.20624l6.37659,-0.50204l1.8158,6.05668l-6.3766,0.50206z" fill="#808080" stroke-linecap="butt"/><path d="M221.53507,352.04021c-10.58484,-0.20919 -19.26718,-4.61156 -19.3926,-9.83298c-0.12542,-5.22142 8.35362,-9.28463 18.93845,-9.07545c10.58485,0.20918 19.26719,4.61157 19.39261,9.83299c0.1254,5.22142 -8.35363,9.2846 -18.93846,9.07542z" fill="#ff9400" stroke-linecap="butt"/><path d="M165.25323,340.26288l6.18371,1.6354l-0.28976,6.31637l-6.18373,-1.63538z" fill="#808080" stroke-linecap="butt"/><path d="M181.64847,350.78092c-10.58484,-0.20918 -19.26718,-4.61156 -19.3926,-9.83298c-0.12542,-5.22142 8.35362,-9.28463 18.93845,-9.07545c10.58484,0.20918 19.26718,4.61157 19.39259,9.83299c0.1254,5.22142 -8.35363,9.2846 -18.93846,9.07542z" fill="#ff9400" stroke-linecap="butt"/><path d="M242.56463,347.85716c0.03256,-6.19926 4.27775,-11.73343 7.1661,-11.60258c2.88838,0.13085 2.95052,6.03511 2.91796,12.23437c-0.01671,3.18221 -0.53122,15.13979 -1.93693,15.0761c-2.88836,-0.13086 -8.17968,-9.50864 -8.14712,-15.7079z" data-paper-data="{&quot;index&quot;:null}" fill="#ffffff" stroke-linecap="butt"/><path d="M24.21959,301.88628c1.37611,1.23892 1.35713,3.50342 -0.0424,5.05792c-1.39953,1.5545 -3.64962,1.81031 -5.02573,0.5714c-1.37611,-1.23892 -1.35713,-3.50343 0.0424,-5.05793c1.39953,-1.5545 3.64962,-1.81032 5.02572,-0.57139z" fill="#000000" stroke-linecap="butt"/><path d="M115.41099,337.83494l-0.98838,6.25147l-6.91025,-0.28407l0.98839,-6.25146z" data-paper-data="{&quot;index&quot;:null}" fill="#808080" stroke-linecap="butt"/><path d="M118.16116,340.46318c4.87566,2.55395 4.69135,12.19711 -0.4117,21.53863c-5.10305,9.3415 -13.19241,14.84389 -18.06808,12.28993c-4.87566,-2.55395 -4.69134,-12.19712 0.41172,-21.53863c5.10305,-9.3415 13.1924,-14.84388 18.06807,-12.28992z" data-paper-data="{&quot;index&quot;:null}" fill="#ff9400" stroke-linecap="butt"/><path d="M83.97115,315.06496c3.71326,-4.05052 13.0193,-1.41307 20.78561,5.89087c7.76631,7.30394 11.05194,16.50856 7.33866,20.55907c-3.71326,4.05052 -13.01931,1.41307 -20.78561,-5.89087c-7.76631,-7.30394 -11.05191,-16.50854 -7.33865,-20.55905z" data-paper-data="{&quot;index&quot;:null}" fill="#ff9400" stroke-linecap="butt"/><path d="M85.90638,372.0226c-5.0257,-1.89961 -9.80352,-0.88717 -9.62787,-5.53718c0.22862,-6.05301 6.52066,-10.59085 14.05361,-10.13559c7.53298,0.45527 13.45433,5.73126 13.2257,11.78426c-0.22862,6.05301 -10.23954,12.03469 -17.7725,11.57943c-1.74603,-0.10553 1.63741,-7.11776 0.12107,-7.69092z" data-paper-data="{&quot;index&quot;:null}" fill="#ffffff" stroke-linecap="butt"/><path d="M24.89321,317.18841c2.26863,2.04247 2.062,5.9705 -0.46154,8.77348c-2.52355,2.80299 -6.4084,3.41949 -8.67704,1.37702c-2.26863,-2.04247 -2.062,-5.9705 0.46155,-8.77349c2.52355,-2.80299 6.40839,-3.41949 8.67703,-1.37702z" fill="#000000" stroke-linecap="butt"/><path d="M-0.70347,316.58089c1.37611,1.23892 1.35713,3.50342 -0.0424,5.05792c-1.39953,1.5545 -3.64962,1.81031 -5.02573,0.5714c-1.37611,-1.23892 -1.35713,-3.50343 0.0424,-5.05793c1.39953,-1.5545 3.64962,-1.81032 5.02572,-0.57139z" fill="#000000" stroke-linecap="butt"/></g></g></svg>