<svg version="1.1" xmlns="http://www.w3.org/2000/svg" xmlns:xlink="http://www.w3.org/1999/xlink" width="728.21603" height="540.61311" viewBox="0,0,728.21603,540.61311"><defs><radialGradient cx="243.68113" cy="176.44333" r="361.9282" gradientUnits="userSpaceOnUse" id="color-1"><stop offset="0" stop-color="#000000" stop-opacity="0"/><stop offset="1" stop-color="#000000"/></radialGradient></defs><g transform="translate(121.10669,93.86322)"><g data-paper-data="{&quot;isPaintingLayer&quot;:true}" fill-rule="nonzero" stroke-linecap="butt" stroke-linejoin="miter" stroke-miterlimit="10" stroke-dasharray="" stroke-dashoffset="0" style="mix-blend-mode: normal"><path d="M-115.04149,408.62069v-459.3847h683.00431v459.3847z" fill="#333333" stroke="none" stroke-width="0"/><path d="M-121.10668,363.96821l2.21336,-337.21552c0,0 228.68029,45.22406 346.46876,40.19827c122.05938,-5.20802 373.53124,-70.91917 373.53124,-70.91917l-2.85776,364.36422c0,0 -252.21985,-49.49757 -373.55508,-48.89504c-118.37695,0.58784 -345.80053,52.46724 -345.80053,52.46724z" fill="#525252" stroke="none" stroke-width="0"/><path d="M100.71929,403.61961v-139.31573c0,0 89.50922,5.71552 135.02909,5.71552c47.06739,0 142.88793,-5.71552 142.88793,-5.71552v139.31573z" fill="#412b08" stroke="#000000" stroke-width="5"/><path d="M-118.24707,445.24989v-537.61311h723.85641v537.61311z" fill="url(#color-1)" stroke="#000000" stroke-width="3"/></g></g></svg>