<svg version="1.1" xmlns="http://www.w3.org/2000/svg" xmlns:xlink="http://www.w3.org/1999/xlink" width="563.81199" height="89.25222" viewBox="0,0,563.81199,89.25222"><g transform="translate(46.03305,2.87894)"><g data-paper-data="{&quot;isPaintingLayer&quot;:true}" fill-rule="nonzero" stroke-linejoin="miter" stroke-miterlimit="10" stroke-dasharray="" stroke-dashoffset="0" style="mix-blend-mode: normal"><path d="M-45.03305,85.37328v-86.11189h561.81199v86.11189z" fill="#505050" stroke="#000000" stroke-width="2" stroke-linecap="butt"/><path d="M388.95014,26.53078v-23.4h88.2v23.4z" fill="#dadada" stroke="none" stroke-width="0" stroke-linecap="butt"/><text transform="translate(390.59927,20.13037) scale(0.5,0.5)" font-size="40" xml:space="preserve" fill="#464646" fill-rule="nonzero" stroke="none" stroke-width="1" stroke-linecap="butt" stroke-linejoin="miter" stroke-miterlimit="10" stroke-dasharray="" stroke-dashoffset="0" font-family="Sans Serif" font-weight="normal" text-anchor="start" style="mix-blend-mode: normal"><tspan x="0" dy="0">STFS</tspan></text><g stroke="#000000"><path d="M44.20166,43.56579c0,11.60378 -9.28295,21.01051 -20.73405,21.01051c-11.4511,0 -20.73405,-9.40673 -20.73405,-21.01051c0,-11.60378 9.28295,-21.01051 20.73405,-21.01051c11.4511,0 20.73405,9.40673 20.73405,21.01051z" fill="#cccccc" stroke-width="2" stroke-linecap="butt"/><path d="M49.29047,55.88347v-25.79807h174.68982v25.79807z" fill="#cccccc" stroke-width="2" stroke-linecap="butt"/><path d="M14.55495,61.68749c0,0 5.68423,-12.43783 8.93745,-12.43783c3.37602,0 9.49012,12.34572 9.49012,12.34572" fill="#ffffff" stroke-width="0.5" stroke-linecap="round"/><path d="M33.81172,41.04931c0,5.08853 -4.70258,9.2136 -10.5035,9.2136c-5.80092,0 -10.5035,-4.12507 -10.5035,-9.2136c0,-5.08853 4.70258,-9.21359 10.5035,-9.21359c5.80092,0 10.5035,4.12507 10.5035,9.2136z" fill="#ffffff" stroke-width="0.5" stroke-linecap="butt"/></g><text transform="translate(-0.00225,17.75529) scale(0.53513,0.47435)" font-size="40" xml:space="preserve" fill="#dadada" fill-rule="nonzero" stroke="none" stroke-width="1" stroke-linecap="butt" stroke-linejoin="miter" stroke-miterlimit="10" stroke-dasharray="" stroke-dashoffset="0" font-family="Sans Serif" font-weight="normal" text-anchor="start" style="mix-blend-mode: normal"><tspan x="0" dy="0">MENU</tspan></text></g></g></svg>